<svg width="190" height="67" viewBox="0 0 190 67" fill="none" xmlns="http://www.w3.org/2000/svg">
<path d="M38.2542 61.3713C42.9651 61.3713 45.7542 58.5823 45.7542 53.9768V52.0315H38.4417V54.6682H42.3089L42.2972 54.9143C42.2034 57.0002 40.6214 58.3713 38.3128 58.3713C35.5003 58.3713 33.7191 56.2034 33.7191 52.5354V52.5237C33.7191 48.9377 35.3948 46.8752 38.1839 46.8752C40.0941 46.8752 41.4417 47.8245 42.0042 49.4651L42.0511 49.5823H45.6019L45.5667 49.4182C45.0042 46.2424 42.2386 43.8752 38.1722 43.8752C33.2151 43.8752 30.1097 47.1448 30.1097 52.5588V52.5706C30.1097 58.0784 33.2034 61.3713 38.2542 61.3713ZM48.098 61.0784H59.3011V58.1604H51.637V53.9065H58.8675V51.1409H51.637V47.0862H59.3011V44.1682H48.098V61.0784ZM69.4847 61.3713C74.512 61.3713 77.6409 58.0081 77.6409 52.6292V52.6057C77.6409 47.2385 74.5003 43.8752 69.4847 43.8752C64.4808 43.8752 61.3284 47.2268 61.3284 52.6057V52.6292C61.3284 58.0081 64.4573 61.3713 69.4847 61.3713ZM69.4847 58.3713C66.7073 58.3713 64.9378 56.1682 64.9378 52.6292V52.6057C64.9378 49.0667 66.7191 46.8752 69.4847 46.8752C72.262 46.8752 74.0316 49.0784 74.0316 52.6057V52.6292C74.0316 56.1331 72.2972 58.3713 69.4847 58.3713ZM79.9261 61.0784H83.4651V54.9495H86.3011L89.4534 61.0784H93.4612L89.8987 54.4221C91.7737 53.6838 92.9573 51.8323 92.9573 49.6057V49.5823C92.9573 46.1838 90.7073 44.1682 86.9105 44.1682H79.9261V61.0784ZM83.4651 52.2659V46.9338H86.4769C88.223 46.9338 89.3362 47.9651 89.3362 49.5823V49.6057C89.3362 51.2698 88.2816 52.2659 86.5237 52.2659H83.4651ZM102.918 61.3713C107.629 61.3713 110.418 58.5823 110.418 53.9768V52.0315H103.106V54.6682H106.973L106.961 54.9143C106.867 57.0002 105.285 58.3713 102.977 58.3713C100.164 58.3713 98.3831 56.2034 98.3831 52.5354V52.5237C98.3831 48.9377 100.059 46.8752 102.848 46.8752C104.758 46.8752 106.106 47.8245 106.668 49.4651L106.715 49.5823H110.266L110.231 49.4182C109.668 46.2424 106.903 43.8752 102.836 43.8752C97.8792 43.8752 94.7737 47.1448 94.7737 52.5588V52.5706C94.7737 58.0784 97.8675 61.3713 102.918 61.3713ZM112.762 61.0784H116.301V44.1682H112.762V61.0784ZM118.035 61.0784H121.75L123.028 56.9768H129.004L130.282 61.0784H133.996L128.102 44.1682H123.942L118.035 61.0784ZM125.981 47.4495H126.051L128.184 54.3284H123.848L125.981 47.4495ZM148.106 61.3713C152.817 61.3713 155.606 58.5823 155.606 53.9768V52.0315H148.293V54.6682H152.16L152.149 54.9143C152.055 57.0002 150.473 58.3713 148.164 58.3713C145.352 58.3713 143.571 56.2034 143.571 52.5354V52.5237C143.571 48.9377 145.246 46.8752 148.035 46.8752C149.946 46.8752 151.293 47.8245 151.856 49.4651L151.903 49.5823H155.453L155.418 49.4182C154.856 46.2424 152.09 43.8752 148.024 43.8752C143.067 43.8752 139.961 47.1448 139.961 52.5588V52.5706C139.961 58.0784 143.055 61.3713 148.106 61.3713ZM156.403 61.0784H160.117L161.395 56.9768H167.371L168.649 61.0784H172.364L166.469 44.1682H162.309L156.403 61.0784ZM164.348 47.4495H164.418L166.551 54.3284H162.215L164.348 47.4495ZM179.922 61.3713C184.188 61.3713 186.742 59.3088 186.742 56.0627V56.051C186.742 53.3909 185.149 51.9495 181.61 51.2463L179.817 50.8831C177.871 50.4963 177.004 49.8752 177.004 48.8088V48.7971C177.004 47.5901 178.094 46.7581 179.91 46.7463C181.657 46.7463 182.875 47.5549 183.051 48.8792L183.063 49.0198H186.403L186.391 48.7971C186.227 45.8323 183.825 43.8752 179.91 43.8752C176.16 43.8752 173.465 45.9143 173.465 49.0081V49.0198C173.465 51.5627 175.153 53.1565 178.492 53.8245L180.274 54.176C182.371 54.6096 183.203 55.1838 183.203 56.3323V56.344C183.203 57.6331 181.973 58.4885 180.016 58.4885C178.082 58.4885 176.688 57.6682 176.465 56.3557L176.442 56.2268H173.102L173.114 56.4143C173.313 59.5315 175.903 61.3713 179.922 61.3713Z" fill="#8B8B8B"/>
<path d="M8.8134 0C13.6304 1.14731 17.7622 5.98563 17.7622 11.7075C17.7622 23.6738 6.22008 25.8514 6.22008 32.8669C6.20607 33.5346 6.30051 34.2004 6.49986 34.8392C3.6125 34.4438 1.16272 31.1582 1.16272 27.3648C1.16272 17.6443 9.83247 15.7501 9.83247 5.63911C9.74275 3.72438 9.40022 1.82899 8.8134 0" fill="#EC1B34"/>
<path d="M20.5112 13.8184C21.6483 14.8131 22.5572 16.0315 23.1782 17.3938C23.7991 18.756 24.1181 20.2312 24.1141 21.7225C24.1141 31.9408 12.2761 33.1859 12.2761 37.0964C12.2651 37.4294 12.3145 37.7616 12.4222 38.0777C11.4598 37.6709 10.6364 37.004 10.0486 36.1556C9.46082 35.3072 9.13318 34.3124 9.10419 33.2883C9.10419 27.0343 18.8931 25.4327 20.5126 13.818" fill="#72BE44"/>
<path d="M2.89832 3.24011C3.24844 3.89567 3.44318 4.61976 3.46812 5.35879C3.46812 8.94703 0 10.3142 0 13.9613C0.00399685 14.7594 0.219123 15.5429 0.624495 16.2357C1.02987 16.9286 1.61171 17.5073 2.31354 17.9157C2.33551 17.6285 2.38566 17.3441 2.4633 17.0663C3.27271 14.5326 7.07577 11.7302 7.07577 7.75619C7.05573 6.63727 6.62153 5.56332 5.85353 4.73306C5.08552 3.9028 4.0357 3.37244 2.89832 3.24011Z" fill="#00A4E4"/>
<path d="M32.7863 31.3402C34.2937 32.6687 35.7241 33.4494 37.7855 33.4494C38.9304 33.4494 41.0153 32.9771 41.0153 31.5075C41.0153 30.658 40.3606 30.2282 39.0781 30.015L35.4823 29.4442C32.2827 28.9489 30.5301 27.2891 30.5301 24.7994C30.5301 20.7254 33.9043 19.0394 37.5941 19.0394C39.0261 19.0308 40.4441 19.3153 41.7567 19.8746C43.0694 20.4339 44.2476 21.2556 45.2154 22.2868L41.9386 24.5862C41.3763 23.9165 40.6685 23.3774 39.8666 23.008C39.0646 22.6387 38.1886 22.4483 37.302 22.4508C36.3116 22.4508 34.8511 23.0675 34.8511 24.1598C34.8511 25.0586 35.6066 25.5113 37.2517 25.7737L38.9069 26.0328C42.3516 26.5773 45.1919 27.6205 45.1919 30.8416C45.1919 35.9161 40.505 36.8674 37.2785 36.8674C35.7618 36.9015 34.2557 36.6115 32.8657 36.0177C31.4756 35.4239 30.2351 34.5407 29.2308 33.4297L32.7863 31.3402Z" fill="white"/>
<path d="M55.8212 36.8672C50.3083 36.8672 47.0818 32.6915 47.0818 27.9483C47.0818 23.2116 50.3083 19.0392 55.8212 19.0392C61.3273 19.0392 64.5538 23.2116 64.5538 27.9483C64.5538 32.6915 61.3273 36.8672 55.8212 36.8672ZM55.8212 22.5916C53.293 22.5916 51.4028 24.1596 51.4028 27.9483C51.4028 30.4183 52.4234 33.3114 55.8212 33.3114C59.0207 33.3114 60.2361 30.5593 60.2361 27.9483C60.2361 25.2946 59.0207 22.5916 55.8212 22.5916Z" fill="white"/>
<path d="M78.68 25.1326C78.4121 24.4039 77.9251 23.7713 77.2828 23.3177C76.6406 22.864 75.873 22.6106 75.0808 22.5905C72.7071 22.5905 70.8169 24.1617 70.8169 27.9504C70.8169 30.4171 71.8343 33.3102 75.2353 33.3102C75.9891 33.2613 76.7155 33.0154 77.3386 32.5982C77.9618 32.181 78.4587 31.6078 78.7774 30.9386L82.1985 32.5525C80.7179 35.1833 78.1461 36.866 75.2353 36.866C69.7224 36.866 66.4926 32.6936 66.4926 27.9504C66.4926 23.2137 69.5042 19.0413 74.8928 19.0413C78.2872 19.0413 80.5198 20.6518 82.1246 23.4466L78.68 25.1326Z" fill="white"/>
<path d="M88.9231 19.5164H93.3885L99.9186 36.3898H95.2787L94.4058 33.7361H88.0267L87.1505 36.3898H82.5441L88.9231 19.5164ZM93.3617 30.6068L91.2297 23.6396H91.1827L89.044 30.6068H93.3617Z" fill="white"/>
<path d="M101.631 19.5164H110.269C114.154 19.5164 116.534 21.2713 116.534 25.0599C116.543 26.0991 116.196 27.1113 115.549 27.9361C114.902 28.7609 113.991 29.351 112.962 29.6129L116.924 36.3931H112.089L108.691 30.3247H105.952V36.3931H101.631V19.5164ZM105.952 27.1888H109.907C111.29 27.1691 112.213 26.4868 112.213 24.9189C112.213 23.3509 111.29 22.6654 109.907 22.6424H105.952V27.1888Z" fill="white"/>
</svg>
